<svg width="1584" height="396" viewBox="0 0 1584 396" fill="none" xmlns="http://www.w3.org/2000/svg">
<rect width="1584" height="396" fill="#F5F5F5"/>
<g id="Awesome banner" clip-path="url(#clip0_0_1)">
<rect width="1584" height="396" fill="url(#paint0_linear_0_1)"/>
<ellipse id="Ellipse 2" cx="323" cy="64" rx="285" ry="288" fill="url(#paint1_linear_0_1)" fill-opacity="0.1"/>
<g id="copyright">
<path d="M75.95 334.52L72.30 334.52L72.30 311.16L77.20 311.16L83.70 330.04Q83.60 329.02 83.50 327.62Q83.41 326.23 83.33 324.79Q83.25 323.35 83.25 322.23L83.25 311.16L86.90 311.16L86.90 334.52L82 334.52L75.57 315.64Q75.63 316.57 75.73 317.88Q75.82 319.19 75.89 320.57Q75.95 321.94 75.95 323.10L75.95 334.52M98.80 334.84Q96.46 334.84 94.67 333.96Q92.88 333.08 91.89 331.53Q90.90 329.98 90.90 327.93Q90.90 325.78 92.13 324.18Q93.36 322.58 95.34 322.17L95.34 322.10Q93.65 321.75 92.61 320.38Q91.57 319 91.57 317.11Q91.57 315.26 92.48 313.85Q93.39 312.44 95.02 311.64Q96.66 310.84 98.80 310.84Q100.94 310.84 102.59 311.64Q104.24 312.44 105.15 313.85Q106.06 315.26 106.06 317.11Q106.06 319 105.01 320.38Q103.95 321.75 102.26 322.10L102.26 322.17Q104.24 322.58 105.47 324.18Q106.70 325.78 106.70 327.93Q106.70 329.98 105.71 331.53Q104.72 333.08 102.93 333.96Q101.14 334.84 98.80 334.84M98.80 320.73Q100.30 320.73 101.23 319.82Q102.16 318.90 102.16 317.46Q102.16 315.99 101.23 315.08Q100.30 314.17 98.80 314.17Q97.30 314.17 96.37 315.08Q95.44 315.99 95.44 317.46Q95.44 318.90 96.37 319.82Q97.30 320.73 98.80 320.73M98.80 331.45Q100.56 331.45 101.68 330.42Q102.80 329.40 102.80 327.74Q102.80 326.04 101.68 325Q100.56 323.96 98.80 323.96Q97.04 323.96 95.92 325Q94.80 326.04 94.80 327.74Q94.80 329.40 95.92 330.42Q97.04 331.45 98.80 331.45M114.35 334.52L110.70 334.52L110.70 311.16L115.60 311.16L122.10 330.04Q122 329.02 121.90 327.62Q121.81 326.23 121.73 324.79Q121.65 323.35 121.65 322.23L121.65 311.16L125.30 311.16L125.30 334.52L120.40 334.52L113.97 315.64Q114.03 316.57 114.13 317.88Q114.22 319.19 114.29 320.57Q114.35 321.94 114.35 323.10" fill="white" fill-opacity="0.9"/>
<path d="M161.48 325.24L151.24 325.24L151.24 322.68L161.48 322.68" fill="white" fill-opacity="0.9"/>
<path d="M195.02 334.84Q191.82 334.84 189.96 333.05Q188.11 331.26 188.11 328.12L188.11 317.56Q188.11 314.42 189.96 312.63Q191.82 310.84 195.02 310.84Q198.15 310.84 200.01 312.65Q201.87 314.46 201.87 317.56L198.99 317.56Q198.99 315.58 197.95 314.50Q196.91 313.43 195.02 313.43Q193.13 313.43 192.06 314.50Q190.99 315.58 190.99 317.56L190.99 328.12Q190.99 330.10 192.06 331.18Q193.13 332.25 195.02 332.25Q196.91 332.25 197.95 331.18Q198.99 330.10 198.99 328.12L201.87 328.12Q201.87 331.22 200.01 333.03Q198.15 334.84 195.02 334.84" fill="white" fill-opacity="0.9"/>
<path d="M213.96 334.84Q210.83 334.84 209 333.02Q207.18 331.19 207.18 327.80L207.18 317.88Q207.18 314.49 209 312.66Q210.83 310.84 213.96 310.84Q217.10 310.84 218.92 312.66Q220.75 314.49 220.75 317.85L220.75 327.80Q220.75 331.19 218.92 333.02Q217.10 334.84 213.96 334.84M213.96 332.25Q215.85 332.25 216.86 331.18Q217.87 330.10 217.87 328.12L217.87 317.56Q217.87 315.58 216.86 314.50Q215.85 313.43 213.96 313.43Q212.11 313.43 211.08 314.50Q210.06 315.58 210.06 317.56L210.06 328.12Q210.06 330.10 211.08 331.18Q212.11 332.25 213.96 332.25" fill="white" fill-opacity="0.9"/>
<path d="M228.65 334.52L225.87 334.52L225.87 311.16L230.12 311.16L233.10 321.27L236.20 311.16L240.46 311.16L240.46 334.52L237.67 334.52L237.67 323.48Q237.67 321.91 237.72 319.88Q237.77 317.85 237.87 315.77Q237.96 313.69 238.09 312.02L234.31 324.09L231.82 324.09L228.20 312.31Q228.46 314.68 228.55 317.50Q228.65 320.31 228.65 323.48" fill="white" fill-opacity="0.9"/>
<path d="M247.85 334.52L245.07 334.52L245.07 311.16L249.32 311.16L252.30 321.27L255.40 311.16L259.66 311.16L259.66 334.52L256.87 334.52L256.87 323.48Q256.87 321.91 256.92 319.88Q256.97 317.85 257.07 315.77Q257.16 313.69 257.29 312.02L253.51 324.09L251.02 324.09L247.40 312.31Q247.66 314.68 247.75 317.50Q247.85 320.31 247.85 323.48" fill="white" fill-opacity="0.9"/>
<path d="M271.56 334.84Q268.30 334.84 266.57 333.03Q264.84 331.22 264.84 328.12L264.84 311.16L267.72 311.16L267.72 328.12Q267.72 330.04 268.67 331.16Q269.61 332.28 271.56 332.28Q273.48 332.28 274.44 331.16Q275.40 330.04 275.40 328.12L275.40 311.16L278.28 311.16L278.28 328.12Q278.28 331.26 276.57 333.05Q274.86 334.84 271.56 334.84" fill="white" fill-opacity="0.9"/>
<path d="M286.83 334.52L284.04 334.52L284.04 311.16L287.88 311.16L295.02 331.16Q294.95 330.36 294.87 329.19Q294.79 328.02 294.75 326.73Q294.70 325.43 294.70 324.28L294.70 311.16L297.48 311.16L297.48 334.52L293.64 334.52L286.54 314.52Q286.60 315.29 286.67 316.46Q286.73 317.62 286.78 318.92Q286.83 320.22 286.83 321.40" fill="white" fill-opacity="0.9"/>
<path d="M316.20 334.52L303.72 334.52L303.72 331.90L308.49 331.90L308.49 313.78L303.72 313.78L303.72 311.16L316.20 311.16L316.20 313.78L311.43 313.78L311.43 331.90L316.20 331.90" fill="white" fill-opacity="0.9"/>
<path d="M330.60 334.52L327.72 334.52L327.72 313.78L321.32 313.78L321.32 311.16L337 311.16L337 313.78L330.60 313.78" fill="white" fill-opacity="0.9"/>
<path d="M349.80 334.52L346.92 334.52L346.92 325.78L339.88 311.16L342.95 311.16L347.50 320.76Q347.88 321.56 348.11 322.12Q348.33 322.68 348.39 322.94Q348.46 322.68 348.70 322.12Q348.94 321.56 349.32 320.76L353.87 311.16L356.84 311.16L349.80 325.78" fill="white" fill-opacity="0.9"/>
<path d="M382.83 334.52L380.04 334.52L380.04 311.16L383.88 311.16L391.02 331.16Q390.95 330.36 390.87 329.19Q390.79 328.02 390.75 326.73Q390.70 325.43 390.70 324.28L390.70 311.16L393.48 311.16L393.48 334.52L389.64 334.52L382.54 314.52Q382.60 315.29 382.67 316.46Q382.73 317.62 382.78 318.92Q382.83 320.22 382.83 321.40" fill="white" fill-opacity="0.9"/>
<path d="M405.96 334.84Q402.83 334.84 401 333.02Q399.18 331.19 399.18 327.80L399.18 317.88Q399.18 314.49 401 312.66Q402.83 310.84 405.96 310.84Q409.10 310.84 410.92 312.66Q412.75 314.49 412.75 317.85L412.75 327.80Q412.75 331.19 410.92 333.02Q409.10 334.84 405.96 334.84M405.96 332.25Q407.85 332.25 408.86 331.18Q409.87 330.10 409.87 328.12L409.87 317.56Q409.87 315.58 408.86 314.50Q407.85 313.43 405.96 313.43Q404.11 313.43 403.08 314.50Q402.06 315.58 402.06 317.56L402.06 328.12Q402.06 330.10 403.08 331.18Q404.11 332.25 405.96 332.25" fill="white" fill-opacity="0.9"/>
<path d="M424.55 334.52L418.51 334.52L418.51 311.16L424.55 311.16Q426.83 311.16 428.47 312.02Q430.12 312.89 431.03 314.46Q431.95 316.02 431.95 318.17L431.95 327.48Q431.95 329.62 431.03 331.21Q430.12 332.79 428.47 333.66Q426.83 334.52 424.55 334.52M421.39 313.72L421.39 331.96L424.55 331.96Q426.67 331.96 427.87 330.78Q429.07 329.59 429.07 327.48L429.07 318.17Q429.07 316.09 427.87 314.90Q426.67 313.72 424.55 313.72" fill="white" fill-opacity="0.9"/>
<path d="M451.40 334.52L437.96 334.52L437.96 311.16L451.40 311.16L451.40 313.78L440.81 313.78L440.81 321.02L450.28 321.02L450.28 323.58L440.81 323.58L440.81 331.90L451.40 331.90" fill="white" fill-opacity="0.9"/>
<path d="M463.69 334.84Q460.30 334.84 458.28 333.05Q456.27 331.26 456.27 328.12L459.15 328.12Q459.15 330.07 460.39 331.18Q461.64 332.28 463.69 332.28Q465.67 332.28 466.86 331.13Q468.04 329.98 468.04 328.12Q468.04 326.71 467.29 325.67Q466.54 324.63 465.13 324.25L461.58 323.26Q459.37 322.62 458.11 320.97Q456.84 319.32 456.84 317.08Q456.84 315.22 457.67 313.82Q458.51 312.41 460.01 311.62Q461.51 310.84 463.47 310.84Q465.45 310.84 466.97 311.62Q468.49 312.41 469.35 313.80Q470.22 315.19 470.22 317.02L467.34 317.02Q467.34 315.42 466.25 314.41Q465.16 313.40 463.47 313.40Q461.77 313.40 460.71 314.41Q459.66 315.42 459.66 317.02Q459.66 318.30 460.35 319.21Q461.03 320.12 462.28 320.47L465.93 321.50Q468.27 322.14 469.56 323.91Q470.86 325.69 470.86 328.12Q470.86 331.19 468.91 333.02Q466.95 334.84 463.69 334.84" fill="white" fill-opacity="0.9"/>
</g>
<path d="M74.37 197.64L72.23 197.64L72.23 180.12L77.63 180.12Q79.19 180.12 80.37 180.76Q81.54 181.39 82.19 182.52Q82.84 183.65 82.84 185.16Q82.84 186.94 81.93 188.21Q81.02 189.48 79.50 189.98L83.08 197.64L80.70 197.64L77.27 190.20L74.37 190.20L74.37 197.64M74.37 182.06L74.37 188.26L77.63 188.26Q78.98 188.26 79.79 187.40Q80.61 186.55 80.61 185.16Q80.61 183.74 79.79 182.90Q78.98 182.06 77.63 182.06" fill="white" fill-opacity="0.7"/>
<path d="M96.88 197.64L86.80 197.64L86.80 180.12L96.88 180.12L96.88 182.09L88.94 182.09L88.94 187.51L96.04 187.51L96.04 189.43L88.94 189.43L88.94 195.67L96.88 195.67" fill="white" fill-opacity="0.7"/>
<path d="M106.10 197.88Q103.55 197.88 102.04 196.54Q100.53 195.19 100.53 192.84L102.69 192.84Q102.69 194.30 103.62 195.13Q104.56 195.96 106.10 195.96Q107.58 195.96 108.47 195.10Q109.36 194.23 109.36 192.84Q109.36 191.78 108.80 191Q108.23 190.22 107.18 189.94L104.51 189.19Q102.86 188.71 101.91 187.48Q100.96 186.24 100.96 184.56Q100.96 183.17 101.58 182.11Q102.21 181.06 103.34 180.47Q104.46 179.88 105.93 179.88Q107.42 179.88 108.56 180.47Q109.70 181.06 110.34 182.10Q110.99 183.14 110.99 184.51L108.83 184.51Q108.83 183.31 108.02 182.56Q107.20 181.80 105.93 181.80Q104.66 181.80 103.86 182.56Q103.07 183.31 103.07 184.51Q103.07 185.47 103.59 186.16Q104.10 186.84 105.04 187.10L107.78 187.87Q109.53 188.35 110.50 189.68Q111.47 191.02 111.47 192.84Q111.47 195.14 110.01 196.51Q108.54 197.88 106.10 197.88" fill="white" fill-opacity="0.7"/>
<path d="M121.48 197.64L119.32 197.64L119.32 182.09L114.52 182.09L114.52 180.12L126.28 180.12L126.28 182.09L121.48 182.09" fill="white" fill-opacity="0.7"/>
<path d="M134.92 197.64L132.76 197.64L132.76 188.21L128.92 188.21L128.92 186.24L132.76 186.24L132.76 183.48Q132.76 181.92 133.74 181.02Q134.73 180.12 136.46 180.12L140.32 180.12L140.32 182.09L136.46 182.09Q134.92 182.09 134.92 183.48L134.92 186.24L140.32 186.24L140.32 188.21L134.92 188.21" fill="white" fill-opacity="0.7"/>
<path d="M149.18 197.88Q146.90 197.88 145.53 196.52Q144.16 195.17 144.16 192.84L144.16 184.44L146.32 184.44L146.32 192.84Q146.32 194.28 147.09 195.13Q147.86 195.98 149.18 195.98Q150.52 195.98 151.30 195.13Q152.08 194.28 152.08 192.84L152.08 184.44L154.24 184.44L154.24 192.84Q154.24 195.17 152.85 196.52Q151.46 197.88 149.18 197.88" fill="white" fill-opacity="0.7"/>
<path d="M169.60 197.64L165.52 197.64Q163.77 197.64 162.72 196.62Q161.68 195.60 161.68 193.92L161.68 182.09L157.12 182.09L157.12 180.12L163.84 180.12L163.84 193.92Q163.84 194.74 164.30 195.20Q164.75 195.67 165.52 195.67L169.60 195.67" fill="white" fill-opacity="0.7"/>
<path d="M188.61 197.64L186.40 197.64L190.96 180.12L193.86 180.12L198.40 197.64L196.22 197.64L195.06 192.98L189.76 192.98L188.61 197.64M191.54 185.74L190.19 191.16L194.61 191.16L193.26 185.76Q192.88 184.22 192.66 183.19Q192.45 182.16 192.40 181.85Q192.35 182.16 192.14 183.19Q191.92 184.22 191.54 185.74" fill="white" fill-opacity="0.7"/>
<path d="M203.97 197.64L201.81 197.64L201.81 180.12L207.45 180.12Q209.90 180.12 211.35 181.52Q212.80 182.93 212.80 185.28Q212.80 187.63 211.35 189.04Q209.90 190.44 207.45 190.44L203.97 190.44L203.97 197.64M203.97 182.06L203.97 188.50L207.45 188.50Q208.86 188.50 209.72 187.62Q210.57 186.74 210.57 185.28Q210.57 183.79 209.72 182.93Q208.86 182.06 207.45 182.06" fill="white" fill-opacity="0.7"/>
<path d="M225.88 197.64L216.52 197.64L216.52 195.67L220.10 195.67L220.10 182.09L216.52 182.09L216.52 180.12L225.88 180.12L225.88 182.09L222.30 182.09L222.30 195.67L225.88 195.67" fill="white" fill-opacity="0.7"/>
<path d="M255.16 197.64L251.32 197.64Q249.69 197.64 248.70 196.69Q247.72 195.74 247.72 194.16L247.72 186.41L243.93 186.41L243.93 184.44L247.72 184.44L247.72 180.72L249.88 180.72L249.88 184.44L255.28 184.44L255.28 186.41L249.88 186.41L249.88 194.16Q249.88 194.83 250.28 195.25Q250.67 195.67 251.32 195.67L255.16 195.67" fill="white" fill-opacity="0.7"/>
<path d="M264.40 197.83Q262.02 197.83 260.62 196.44Q259.22 195.05 259.22 192.55L259.22 189.53Q259.22 187.01 260.61 185.63QNaN 184.25 264.40 184.25Q266.80 184.25 268.19 185.63Q269.58 187.01 269.58 189.53L269.58 192.55Q269.58 195.05 268.18 196.44Q266.78 197.83 264.40 197.83M264.40 195.91Q265.82 195.91 266.62 195.12Q267.42 194.33 267.42 192.79L267.42 189.29Q267.42 187.75 266.62 186.96Q265.82 186.17 264.40 186.17Q263.01 186.17 262.19 186.96Q261.38 187.75 261.38 189.29L261.38 192.79Q261.38 194.33 262.19 195.12Q263.01 195.91 264.40 195.91" fill="white" fill-opacity="0.7"/>
<path d="M293.73 197.83L292.67 197.83Q290.46 197.83 289.25 196.84Q288.04 195.84 288.04 194.02L290.20 194.02Q290.20 194.93 290.85 195.44Q291.50 195.96 292.67 195.96L293.73 195.96Q294.93 195.96 295.59 195.43Q296.25 194.90 296.25 193.94Q296.25 192.24 294.69 192.02L291.04 191.50Q289.70 191.30 288.95 190.38Q288.21 189.46 288.21 187.94Q288.21 186.22 289.40 185.23Q290.58 184.25 292.67 184.25L293.73 184.25Q295.65 184.25 296.86 185.20Q298.07 186.14 298.17 187.68L295.98 187.68Q295.94 186.98 295.32 186.53Q294.71 186.07 293.73 186.07L292.67 186.07Q291.57 186.07 290.94 186.58Q290.32 187.08 290.32 187.94Q290.32 189.34 291.59 189.53L295 190.01Q298.36 190.49 298.36 193.94Q298.36 195.79 297.15 196.81Q295.94 197.83 293.73 197.83" fill="white" fill-opacity="0.7"/>
<path d="M307.60 197.88Q305.27 197.88 303.84 196.48Q302.42 195.07 302.42 192.60L302.42 189.48Q302.42 187.01 303.84 185.60Q305.27 184.20 307.60 184.20Q309.16 184.20 310.32 184.82Q311.49 185.45 312.14 186.58Q312.78 187.70 312.78 189.24L312.78 191.59L304.53 191.59L304.53 192.84Q304.53 194.30 305.37 195.16Q306.21 196.01 307.60 196.01Q308.80 196.01 309.58 195.54Q310.36 195.07 310.53 194.28L312.69 194.28Q312.47 195.94 311.08 196.91Q309.69 197.88 307.60 197.88M304.53 189.24L304.53 189.91L310.67 189.91L310.67 189.24Q310.67 187.68 309.87 186.83Q309.06 185.98 307.60 185.98Q306.14 185.98 305.33 186.83Q304.53 187.68 304.53 189.24" fill="white" fill-opacity="0.7"/>
<path d="M320.85 197.88Q318.81 197.88 317.61 196.74Q316.41 195.60 316.41 193.75Q316.41 192.53 316.96 191.62Q317.51 190.70 318.50 190.19Q319.48 189.67 320.75 189.67L324.83 189.67L324.83 188.64Q324.83 186.07 322.02 186.07Q320.78 186.07 320.01 186.53Q319.24 186.98 319.19 187.80L317.03 187.80Q317.15 186.24 318.48 185.22Q319.82 184.20 322.02 184.20Q324.42 184.20 325.71 185.35Q326.99 186.50 326.99 188.57L326.99 197.64L324.86 197.64L324.86 195.24L324.81 195.24Q324.62 196.46 323.58 197.17Q322.55 197.88 320.85 197.88M321.38 196.06Q322.96 196.06 323.90 195.29Q324.83 194.52 324.83 193.20L324.83 191.35L320.99 191.35Q319.94 191.35 319.28 191.99Q318.62 192.62 318.62 193.68Q318.62 194.78 319.35 195.42Q320.08 196.06 321.38 196.06" fill="white" fill-opacity="0.7"/>
<path d="M334.05 197.64L331.89 197.64L331.89 184.44L334.05 184.44L334.05 186.96L334.10 186.96Q334.26 185.69 335.18 184.94Q336.09 184.20 337.62 184.20Q339.69 184.20 340.80 185.44Q341.92 186.67 341.92 188.95L341.92 190.08L339.76 190.08L339.76 188.95Q339.76 186.07 336.95 186.07Q335.54 186.07 334.79 186.89Q334.05 187.70 334.05 189.24" fill="white" fill-opacity="0.7"/>
<path d="M350.99 197.88Q348.59 197.88 347.15 196.54Q345.71 195.19 345.71 192.84L345.71 189.24Q345.71 186.89 347.15 185.54Q348.59 184.20 350.99 184.20Q353.27 184.20 354.68 185.42Q356.08 186.65 356.15 188.76L353.99 188.76Q353.92 187.49 353.13 186.80Q352.34 186.12 350.99 186.12Q349.58 186.12 348.72 186.92Q347.87 187.73 347.87 189.22L347.87 192.84Q347.87 194.33 348.72 195.14Q349.58 195.96 350.99 195.96Q352.34 195.96 353.13 195.26Q353.92 194.57 353.99 193.32L356.15 193.32Q356.08 195.43 354.68 196.66Q353.27 197.88 350.99 197.88" fill="white" fill-opacity="0.7"/>
<path d="M362.37 197.64L360.21 197.64L360.21 180.12L362.37 180.12L362.37 186.96L362.39 186.96Q362.56 185.64 363.47 184.92Q364.38 184.20 365.90 184.20Q367.89 184.20 369.06 185.42Q370.24 186.65 370.24 188.76L370.24 197.64L368.08 197.64L368.08 189.12Q368.08 187.63 367.32 186.83Q366.57 186.02 365.27 186.02Q363.93 186.02 363.15 186.86Q362.37 187.70 362.37 189.24" fill="white" fill-opacity="0.7"/>
<path d="M392.85 197.88Q390.81 197.88 389.61 196.74Q388.41 195.60 388.41 193.75Q388.41 192.53 388.96 191.62Q389.51 190.70 390.50 190.19Q391.48 189.67 392.75 189.67L396.83 189.67L396.83 188.64Q396.83 186.07 394.02 186.07Q392.78 186.07 392.01 186.53Q391.24 186.98 391.19 187.80L389.03 187.80Q389.15 186.24 390.48 185.22Q391.82 184.20 394.02 184.20Q396.42 184.20 397.71 185.35Q398.99 186.50 398.99 188.57L398.99 197.64L396.86 197.64L396.86 195.24L396.81 195.24Q396.62 196.46 395.58 197.17Q394.55 197.88 392.85 197.88M393.38 196.06Q394.96 196.06 395.90 195.29Q396.83 194.52 396.83 193.20L396.83 191.35L392.99 191.35Q391.94 191.35 391.28 191.99Q390.62 192.62 390.62 193.68Q390.62 194.78 391.35 195.42Q392.08 196.06 393.38 196.06" fill="white" fill-opacity="0.7"/>
<path d="M405.57 197.64L403.41 197.64L403.41 184.44L405.57 184.44L405.57 186.96L405.59 186.96Q405.76 185.64 406.67 184.92Q407.58 184.20 409.10 184.20Q411.09 184.20 412.26 185.42Q413.44 186.65 413.44 188.76L413.44 197.64L411.28 197.64L411.28 189.14Q411.28 187.63 410.52 186.83Q409.77 186.02 408.47 186.02Q407.13 186.02 406.35 186.86Q405.57 187.70 405.57 189.24" fill="white" fill-opacity="0.7"/>
<path d="M422.03 197.88Q420.06 197.88 418.88 196.56Q417.69 195.24 417.69 192.98L417.69 189.12Q417.69 186.84 418.86 185.52Q420.04 184.20 422.03 184.20Q423.52 184.20 424.49 184.94Q425.46 185.69 425.66 186.96L425.68 186.96L425.63 183.96L425.63 180.12L427.79 180.12L427.79 197.64L425.63 197.64L425.63 195.12L425.61 195.12Q425.44 196.42 424.48 197.15Q423.52 197.88 422.03 197.88M422.75 196.01Q424.10 196.01 424.86 195.17Q425.63 194.33 425.63 192.84L425.63 189.24Q425.63 187.75 424.86 186.91Q424.10 186.07 422.75 186.07Q421.38 186.07 420.62 186.78Q419.85 187.49 419.85 189.12L419.85 192.96Q419.85 194.57 420.62 195.29Q421.38 196.01 422.75 196.01" fill="white" fill-opacity="0.7"/>
<path d="M449.25 197.64L447.09 197.64L447.09 184.44L449.25 184.44L449.25 186.96L449.30 186.96Q449.46 185.69 450.38 184.94Q451.29 184.20 452.82 184.20Q454.89 184.20 456 185.44Q457.12 186.67 457.12 188.95L457.12 190.08L454.96 190.08L454.96 188.95Q454.96 186.07 452.15 186.07Q450.74 186.07 449.99 186.89Q449.25 187.70 449.25 189.24" fill="white" fill-opacity="0.7"/>
<path d="M466 197.88Q463.67 197.88 462.24 196.48Q460.82 195.07 460.82 192.60L460.82 189.48Q460.82 187.01 462.24 185.60Q463.67 184.20 466 184.20Q467.56 184.20 468.72 184.82Q469.89 185.45 470.54 186.58Q471.18 187.70 471.18 189.24L471.18 191.59L462.93 191.59L462.93 192.84Q462.93 194.30 463.77 195.16Q464.61 196.01 466 196.01Q467.20 196.01 467.98 195.54Q468.76 195.07 468.93 194.28L471.09 194.28Q470.87 195.94 469.48 196.91Q468.09 197.88 466 197.88M462.93 189.24L462.93 189.91L469.07 189.91L469.07 189.24Q469.07 187.68 468.27 186.83Q467.46 185.98 466 185.98Q464.54 185.98 463.73 186.83Q462.93 187.68 462.93 189.24" fill="white" fill-opacity="0.7"/>
<path d="M485.56 197.64L481.72 197.64Q480.09 197.64 479.10 196.69Q478.12 195.74 478.12 194.16L478.12 186.41L474.33 186.41L474.33 184.44L478.12 184.44L478.12 180.72L480.28 180.72L480.28 184.44L485.68 184.44L485.68 186.41L480.28 186.41L480.28 194.16Q480.28 194.83 480.68 195.25Q481.07 195.67 481.72 195.67L485.56 195.67" fill="white" fill-opacity="0.7"/>
<path d="M492.45 197.64L490.29 197.64L490.29 184.44L492.45 184.44L492.45 186.96L492.50 186.96Q492.66 185.69 493.58 184.94Q494.49 184.20 496.02 184.20Q498.09 184.20 499.20 185.44Q500.32 186.67 500.32 188.95L500.32 190.08L498.16 190.08L498.16 188.95Q498.16 186.07 495.35 186.07Q493.94 186.07 493.19 186.89Q492.45 187.70 492.45 189.24" fill="white" fill-opacity="0.7"/>
<path d="M515.32 197.64L504.04 197.64L504.04 195.67L508.72 195.67L508.72 186.41L504.52 186.41L504.52 184.44L510.88 184.44L510.88 195.67L515.32 195.67L515.32 197.64M509.56 182.06Q508.77 182.06 508.31 181.66Q507.86 181.25 507.86 180.55Q507.86 179.83 508.31 179.41Q508.77 178.99 509.56 178.99Q510.35 178.99 510.81 179.41Q511.26 179.83 511.26 180.55Q511.26 181.25 510.81 181.66Q510.35 182.06 509.56 182.06" fill="white" fill-opacity="0.7"/>
<path d="M523.60 197.88Q521.27 197.88 519.84 196.48Q518.42 195.07 518.42 192.60L518.42 189.48Q518.42 187.01 519.84 185.60Q521.27 184.20 523.60 184.20Q525.16 184.20 526.32 184.82Q527.49 185.45 528.14 186.58Q528.78 187.70 528.78 189.24L528.78 191.59L520.53 191.59L520.53 192.84Q520.53 194.30 521.37 195.16Q522.21 196.01 523.60 196.01Q524.80 196.01 525.58 195.54Q526.36 195.07 526.53 194.28L528.69 194.28Q528.47 195.94 527.08 196.91Q525.69 197.88 523.60 197.88M520.53 189.24L520.53 189.91L526.67 189.91L526.67 189.24Q526.67 187.68 525.87 186.83Q525.06 185.98 523.60 185.98Q522.14 185.98 521.33 186.83Q520.53 187.68 520.53 189.24" fill="white" fill-opacity="0.7"/>
<path d="M539.42 197.64L536.58 197.64L532.10 184.44L534.42 184.44L537.30 193.32Q537.57 194.11 537.76 194.84Q537.95 195.58 538.05 195.98Q538.17 195.58 538.34 194.84Q538.50 194.11 538.74 193.32L541.62 184.44L543.90 184.44" fill="white" fill-opacity="0.7"/>
<path d="M552.40 197.88Q550.07 197.88 548.64 196.48Q547.22 195.07 547.22 192.60L547.22 189.48Q547.22 187.01 548.64 185.60Q550.07 184.20 552.40 184.20Q553.96 184.20 555.12 184.82Q556.29 185.45 556.94 186.58Q557.58 187.70 557.58 189.24L557.58 191.59L549.33 191.59L549.33 192.84Q549.33 194.30 550.17 195.16Q551.01 196.01 552.40 196.01Q553.60 196.01 554.38 195.54Q555.16 195.07 555.33 194.28L557.49 194.28Q557.27 195.94 555.88 196.91Q554.49 197.88 552.40 197.88M549.33 189.24L549.33 189.91L555.47 189.91L555.47 189.24Q555.47 187.68 554.67 186.83Q553.86 185.98 552.40 185.98Q550.94 185.98 550.13 186.83Q549.33 187.68 549.33 189.24" fill="white" fill-opacity="0.7"/>
<path d="M578.85 197.64L576.69 197.64L576.69 184.44L578.85 184.44L578.85 186.96L578.90 186.96Q579.06 185.69 579.98 184.94Q580.89 184.20 582.42 184.20Q584.49 184.20 585.60 185.44Q586.72 186.67 586.72 188.95L586.72 190.08L584.56 190.08L584.56 188.95Q584.56 186.07 581.75 186.07Q580.34 186.07 579.59 186.89Q578.85 187.70 578.85 189.24" fill="white" fill-opacity="0.7"/>
<path d="M595.60 197.83Q593.22 197.83 591.82 196.44Q590.42 195.05 590.42 192.55L590.42 189.53Q590.42 187.01 591.81 185.63Q593.20 184.25 595.60 184.25Q598 184.25 599.39 185.63Q600.78 187.01 600.78 189.53L600.78 192.55Q600.78 195.05 599.38 196.44Q597.98 197.83 595.60 197.83M595.60 195.91Q597.02 195.91 597.82 195.12Q598.62 194.33 598.62 192.79L598.62 189.29Q598.62 187.75 597.82 186.96Q597.02 186.17 595.60 186.17Q594.21 186.17 593.39 186.96Q592.58 187.75 592.58 189.29L592.58 192.79Q592.58 194.33 593.39 195.12Q594.21 195.91 595.60 195.91" fill="white" fill-opacity="0.7"/>
<path d="M609.33 201.96L607.07 201.96L609.02 196.82L604.10 184.44L606.42 184.44L609.54 192.60Q609.74 193.08 609.90 193.61Q610.07 194.14 610.14 194.52Q610.22 194.14 610.38 193.61Q610.55 193.08 610.72 192.60L613.62 184.44L615.90 184.44" fill="white" fill-opacity="0.7"/>
<path d="M623.25 197.88Q621.21 197.88 620.01 196.74Q618.81 195.60 618.81 193.75Q618.81 192.53 619.36 191.62Q619.91 190.70 620.90 190.19Q621.88 189.67 623.15 189.67L627.23 189.67L627.23 188.64Q627.23 186.07 624.42 186.07Q623.18 186.07 622.41 186.53Q621.64 186.98 621.59 187.80L619.43 187.80Q619.55 186.24 620.88 185.22Q622.22 184.20 624.42 184.20Q626.82 184.20 628.11 185.35Q629.39 186.50 629.39 188.57L629.39 197.64L627.26 197.64L627.26 195.24L627.21 195.24Q627.02 196.46 625.98 197.17Q624.95 197.88 623.25 197.88M623.78 196.06Q625.36 196.06 626.30 195.29Q627.23 194.52 627.23 193.20L627.23 191.35L623.39 191.35Q622.34 191.35 621.68 191.99Q621.02 192.62 621.02 193.68Q621.02 194.78 621.75 195.42Q622.48 196.06 623.78 196.06" fill="white" fill-opacity="0.7"/>
<path d="M644.80 197.64L640.72 197.64Q638.97 197.64 637.92 196.62Q636.88 195.60 636.88 193.92L636.88 182.09L632.32 182.09L632.32 180.12L639.04 180.12L639.04 193.92Q639.04 194.74 639.50 195.20Q639.95 195.67 640.72 195.67L644.80 195.67" fill="white" fill-opacity="0.7"/>
<path d="M658.36 197.64L654.52 197.64Q652.89 197.64 651.90 196.69Q650.92 195.74 650.92 194.16L650.92 186.41L647.13 186.41L647.13 184.44L650.92 184.44L650.92 180.72L653.08 180.72L653.08 184.44L658.48 184.44L658.48 186.41L653.08 186.41L653.08 194.16Q653.08 194.83 653.48 195.25Q653.87 195.67 654.52 195.67L658.36 195.67" fill="white" fill-opacity="0.7"/>
<path d="M666.93 201.96L664.67 201.96L666.62 196.82L661.70 184.44L664.02 184.44L667.14 192.60Q667.34 193.08 667.50 193.61Q667.67 194.14 667.74 194.52Q667.82 194.14 667.98 193.61Q668.15 193.08 668.32 192.60L671.22 184.44L673.50 184.44" fill="white" fill-opacity="0.7"/>
<path d="M685.84 190.68L678.16 190.68L678.16 188.76L685.84 188.76" fill="white" fill-opacity="0.7"/>
<path d="M696.52 197.64L694.36 197.64L694.36 188.21L690.52 188.21L690.52 186.24L694.36 186.24L694.36 183.48Q694.36 181.92 695.34 181.02Q696.33 180.12 698.06 180.12L701.92 180.12L701.92 182.09L698.06 182.09Q696.52 182.09 696.52 183.48L696.52 186.24L701.92 186.24L701.92 188.21L696.52 188.21" fill="white" fill-opacity="0.7"/>
<path d="M708.45 197.64L706.29 197.64L706.29 184.44L708.45 184.44L708.45 186.96L708.50 186.96Q708.66 185.69 709.58 184.94Q710.49 184.20 712.02 184.20Q714.09 184.20 715.20 185.44Q716.32 186.67 716.32 188.95L716.32 190.08L714.16 190.08L714.16 188.95Q714.16 186.07 711.35 186.07Q709.94 186.07 709.19 186.89Q708.45 187.70 708.45 189.24" fill="white" fill-opacity="0.7"/>
<path d="M725.20 197.88Q722.87 197.88 721.44 196.48Q720.02 195.07 720.02 192.60L720.02 189.48Q720.02 187.01 721.44 185.60Q722.87 184.20 725.20 184.20Q726.76 184.20 727.92 184.82Q729.09 185.45 729.74 186.58Q730.38 187.70 730.38 189.24L730.38 191.59L722.13 191.59L722.13 192.84Q722.13 194.30 722.97 195.16Q723.81 196.01 725.20 196.01Q726.40 196.01 727.18 195.54Q727.96 195.07 728.13 194.28L730.29 194.28Q730.07 195.94 728.68 196.91Q727.29 197.88 725.20 197.88M722.13 189.24L722.13 189.91L728.27 189.91L728.27 189.24Q728.27 187.68 727.47 186.83Q726.66 185.98 725.20 185.98Q723.74 185.98 722.93 186.83Q722.13 187.68 722.13 189.24" fill="white" fill-opacity="0.7"/>
<path d="M739.60 197.88Q737.27 197.88 735.84 196.48Q734.42 195.07 734.42 192.60L734.42 189.48Q734.42 187.01 735.84 185.60Q737.27 184.20 739.60 184.20Q741.16 184.20 742.32 184.82Q743.49 185.45 744.14 186.58Q744.78 187.70 744.78 189.24L744.78 191.59L736.53 191.59L736.53 192.84Q736.53 194.30 737.37 195.16Q738.21 196.01 739.60 196.01Q740.80 196.01 741.58 195.54Q742.36 195.07 742.53 194.28L744.69 194.28Q744.47 195.94 743.08 196.91Q741.69 197.88 739.60 197.88M736.53 189.24L736.53 189.91L742.67 189.91L742.67 189.24Q742.67 187.68 741.87 186.83Q741.06 185.98 739.60 185.98Q738.14 185.98 737.33 186.83Q736.53 187.68 736.53 189.24" fill="white" fill-opacity="0.7"/>
<path d="M774.52 197.64L763.24 197.64L763.24 195.67L767.92 195.67L767.92 186.41L763.72 186.41L763.72 184.44L770.08 184.44L770.08 195.67L774.52 195.67L774.52 197.64M768.76 182.06Q767.97 182.06 767.51 181.66Q767.06 181.25 767.06 180.55Q767.06 179.83 767.51 179.41Q767.97 178.99 768.76 178.99Q769.55 178.99 770.01 179.41Q770.46 179.83 770.46 180.55Q770.46 181.25 770.01 181.66Q769.55 182.06 768.76 182.06" fill="white" fill-opacity="0.7"/>
<path d="M779.06 197.64L777.04 197.64L777.04 184.44L778.91 184.44L778.91 186.19L778.96 186.19Q779.08 185.30 779.67 184.75Q780.26 184.20 781.17 184.20Q782.03 184.20 782.63 184.70Q783.23 185.21 783.50 186.07L783.52 186.07Q783.69 185.21 784.28 184.70Q784.86 184.20 785.78 184.20Q787.05 184.20 787.80 185.15Q788.56 186.10 788.56 187.61L788.56 197.64L786.54 197.64L786.54 187.58Q786.54 186.79 786.16 186.32Q785.78 185.86 785.10 185.86Q784.46 185.86 784.07 186.31Q783.69 186.77 783.69 187.56L783.69 197.64L781.91 197.64L781.91 187.58Q781.91 186.79 781.53 186.32Q781.14 185.86 780.50 185.86Q779.82 185.86 779.44 186.31Q779.06 186.77 779.06 187.56" fill="white" fill-opacity="0.7"/>
<path d="M796.05 197.88Q794.01 197.88 792.81 196.74Q791.61 195.60 791.61 193.75Q791.61 192.53 792.16 191.62Q792.71 190.70 793.70 190.19Q794.68 189.67 795.95 189.67L800.03 189.67L800.03 188.64Q800.03 186.07 797.22 186.07Q795.98 186.07 795.21 186.53Q794.44 186.98 794.39 187.80L792.23 187.80Q792.35 186.24 793.68 185.22Q795.02 184.20 797.22 184.20Q799.62 184.20 800.91 185.35Q802.19 186.50 802.19 188.57L802.19 197.64L800.06 197.64L800.06 195.24L800.01 195.24Q799.82 196.46 798.78 197.17Q797.75 197.88 796.05 197.88M796.58 196.06Q798.16 196.06 799.10 195.29Q800.03 194.52 800.03 193.20L800.03 191.35L796.19 191.35Q795.14 191.35 794.48 191.99Q793.82 192.62 793.82 193.68Q793.82 194.78 794.55 195.42Q795.28 196.06 796.58 196.06" fill="white" fill-opacity="0.7"/>
<path d="M811.96 201.96L808.26 201.96L808.26 199.99L811.98 199.99Q813.11 199.99 813.76 199.36Q814.41 198.72 814.41 197.64L814.41 196.44L814.46 194.28L814.38 194.28Q814.19 195.46 813.26 196.09Q812.32 196.73 810.90 196.73Q808.86 196.73 807.69 195.43Q806.51 194.14 806.51 191.88L806.51 189.10Q806.51 186.84 807.69 185.52Q808.86 184.20 810.90 184.20Q812.32 184.20 813.26 184.87Q814.19 185.54 814.38 186.72L814.43 186.72L814.43 184.44L816.57 184.44L816.57 197.64Q816.57 199.63 815.33 200.80Q814.10 201.96 811.96 201.96M811.55 194.93Q812.90 194.93 813.66 194.09Q814.43 193.25 814.43 191.76L814.43 189.24Q814.43 187.75 813.66 186.91Q812.90 186.07 811.55 186.07Q810.18 186.07 809.43 186.86Q808.67 187.66 808.67 189L808.67 192Q808.67 193.34 809.43 194.14Q810.18 194.93 811.55 194.93" fill="white" fill-opacity="0.7"/>
<path d="M826 197.88Q823.67 197.88 822.24 196.48Q820.82 195.07 820.82 192.60L820.82 189.48Q820.82 187.01 822.24 185.60Q823.67 184.20 826 184.20Q827.56 184.20 828.72 184.82Q829.89 185.45 830.54 186.58Q831.18 187.70 831.18 189.24L831.18 191.59L822.93 191.59L822.93 192.84Q822.93 194.30 823.77 195.16Q824.61 196.01 826 196.01Q827.20 196.01 827.98 195.54Q828.76 195.07 828.93 194.28L831.09 194.28Q830.87 195.94 829.48 196.91Q828.09 197.88 826 197.88M822.93 189.24L822.93 189.91L829.07 189.91L829.07 189.24Q829.07 187.68 828.27 186.83Q827.46 185.98 826 185.98Q824.54 185.98 823.73 186.83Q822.93 187.68 822.93 189.24" fill="white" fill-opacity="0.7"/>
<path d="M840.93 197.83L839.87 197.83Q837.66 197.83 836.45 196.84Q835.24 195.84 835.24 194.02L837.40 194.02Q837.40 194.93 838.05 195.44Q838.70 195.96 839.87 195.96L840.93 195.96Q842.13 195.96 842.79 195.43Q843.45 194.90 843.45 193.94Q843.45 192.24 841.89 192.02L838.24 191.50Q836.90 191.30 836.15 190.38Q835.41 189.46 835.41 187.94Q835.41 186.22 836.60 185.23Q837.78 184.25 839.87 184.25L840.93 184.25Q842.85 184.25 844.06 185.20Q845.27 186.14 845.37 187.68L843.18 187.68Q843.14 186.98 842.52 186.53Q841.91 186.07 840.93 186.07L839.87 186.07Q838.77 186.07 838.14 186.58Q837.52 187.08 837.52 187.94Q837.52 189.34 838.79 189.53L842.20 190.01Q845.56 190.49 845.56 193.94Q845.56 195.79 844.35 196.81Q843.14 197.83 840.93 197.83" fill="white" fill-opacity="0.7"/>
<path d="M870.62 197.64L867.78 197.64L863.30 184.44L865.62 184.44L868.50 193.32Q868.77 194.11 868.96 194.84Q869.15 195.58 869.25 195.98Q869.37 195.58 869.54 194.84Q869.70 194.11 869.94 193.32L872.82 184.44L875.10 184.44" fill="white" fill-opacity="0.7"/>
<path d="M889.72 197.64L878.44 197.64L878.44 195.67L883.12 195.67L883.12 186.41L878.92 186.41L878.92 184.44L885.28 184.44L885.28 195.67L889.72 195.67L889.72 197.64M883.96 182.06Q883.17 182.06 882.71 181.66Q882.26 181.25 882.26 180.55Q882.26 179.83 882.71 179.41Q883.17 178.99 883.96 178.99Q884.75 178.99 885.21 179.41Q885.66 179.83 885.66 180.55Q885.66 181.25 885.21 181.66Q884.75 182.06 883.96 182.06" fill="white" fill-opacity="0.7"/>
<path d="M897.23 197.88Q895.26 197.88 894.08 196.56Q892.89 195.24 892.89 192.98L892.89 189.12Q892.89 186.84 894.06 185.52Q895.24 184.20 897.23 184.20Q898.72 184.20 899.69 184.94Q900.66 185.69 900.86 186.96L900.88 186.96L900.83 183.96L900.83 180.12L902.99 180.12L902.99 197.64L900.83 197.64L900.83 195.12L900.81 195.12Q900.64 196.42 899.68 197.15Q898.72 197.88 897.23 197.88M897.95 196.01Q899.30 196.01 900.06 195.17Q900.83 194.33 900.83 192.84L900.83 189.24Q900.83 187.75 900.06 186.91Q899.30 186.07 897.95 186.07Q896.58 186.07 895.82 186.78Q895.05 187.49 895.05 189.12L895.05 192.96Q895.05 194.57 895.82 195.29Q896.58 196.01 897.95 196.01" fill="white" fill-opacity="0.7"/>
<path d="M912.40 197.88Q910.07 197.88 908.64 196.48Q907.22 195.07 907.22 192.60L907.22 189.48Q907.22 187.01 908.64 185.60Q910.07 184.20 912.40 184.20Q913.96 184.20 915.12 184.82Q916.29 185.45 916.94 186.58Q917.58 187.70 917.58 189.24L917.58 191.59L909.33 191.59L909.33 192.84Q909.33 194.30 910.17 195.16Q911.01 196.01 912.40 196.01Q913.60 196.01 914.38 195.54Q915.16 195.07 915.33 194.28L917.49 194.28Q917.27 195.94 915.88 196.91Q914.49 197.88 912.40 197.88M909.33 189.24L909.33 189.91L915.47 189.91L915.47 189.24Q915.47 187.68 914.67 186.83Q913.86 185.98 912.40 185.98Q910.94 185.98 910.13 186.83Q909.33 187.68 909.33 189.24" fill="white" fill-opacity="0.7"/>
<path d="M926.80 197.83Q924.42 197.83 923.02 196.44Q921.62 195.05 921.62 192.55L921.62 189.53Q921.62 187.01 923.01 185.63Q924.40 184.25 926.80 184.25Q929.20 184.25 930.59 185.63Q931.98 187.01 931.98 189.53L931.98 192.55Q931.98 195.05 930.58 196.44Q929.18 197.83 926.80 197.83M926.80 195.91Q928.22 195.91 929.02 195.12Q929.82 194.33 929.82 192.79L929.82 189.29Q929.82 187.75 929.02 186.96Q928.22 186.17 926.80 186.17Q925.41 186.17 924.59 186.96Q923.78 187.75 923.78 189.29L923.78 192.79Q923.78 194.33 924.59 195.12Q925.41 195.91 926.80 195.91" fill="white" fill-opacity="0.7"/>
<path d="M941.73 197.83L940.67 197.83Q938.46 197.83 937.25 196.84Q936.04 195.84 936.04 194.02L938.20 194.02Q938.20 194.93 938.85 195.44Q939.50 195.96 940.67 195.96L941.73 195.96Q942.93 195.96 943.59 195.43Q944.25 194.90 944.25 193.94Q944.25 192.24 942.69 192.02L939.04 191.50Q937.70 191.30 936.95 190.38Q936.21 189.46 936.21 187.94Q936.21 186.22 937.40 185.23Q938.58 184.25 940.67 184.25L941.73 184.25Q943.65 184.25 944.86 185.20Q946.07 186.14 946.17 187.68L943.98 187.68Q943.94 186.98 943.32 186.53Q942.71 186.07 941.73 186.07L940.67 186.07Q939.57 186.07 938.94 186.58Q938.32 187.08 938.32 187.94Q938.32 189.34 939.59 189.53L943 190.01Q946.36 190.49 946.36 193.94Q946.36 195.79 945.15 196.81Q943.94 197.83 941.73 197.83" fill="white" fill-opacity="0.7"/>
<path d="M966.26 197.64L964.24 197.64L964.24 184.44L966.11 184.44L966.11 186.19L966.16 186.19Q966.28 185.30 966.87 184.75Q967.46 184.20 968.37 184.20Q969.23 184.20 969.83 184.70Q970.43 185.21 970.70 186.07L970.72 186.07Q970.89 185.21 971.48 184.70Q972.06 184.20 972.98 184.20Q974.25 184.20 975 185.15Q975.76 186.10 975.76 187.61L975.76 197.64L973.74 197.64L973.74 187.58Q973.74 186.79 973.36 186.32Q972.98 185.86 972.30 185.86Q971.66 185.86 971.27 186.31Q970.89 186.77 970.89 187.56L970.89 197.64L969.11 197.64L969.11 187.58Q969.11 186.79 968.73 186.32Q968.34 185.86 967.70 185.86Q967.02 185.86 966.64 186.31Q966.26 186.77 966.26 187.56" fill="white" fill-opacity="0.7"/>
<path d="M984.38 197.88Q982.10 197.88 980.73 196.52Q979.36 195.17 979.36 192.84L979.36 184.44L981.52 184.44L981.52 192.84Q981.52 194.28 982.29 195.13Q983.06 195.98 984.38 195.98Q985.72 195.98 986.50 195.13Q987.28 194.28 987.28 192.84L987.28 184.44L989.44 184.44L989.44 192.84Q989.44 195.17 988.05 196.52Q986.66 197.88 984.38 197.88" fill="white" fill-opacity="0.7"/>
<path d="M999.33 197.83L998.27 197.83Q996.06 197.83 994.85 196.84Q993.64 195.84 993.64 194.02L995.80 194.02Q995.80 194.93 996.45 195.44Q997.10 195.96 998.27 195.96L999.33 195.96Q1000.53 195.96 1001.19 195.43Q1001.85 194.90 1001.85 193.94Q1001.85 192.24 1000.29 192.02L996.64 191.50Q995.30 191.30 994.55 190.38Q993.81 189.46 993.81 187.94Q993.81 186.22 995 185.23Q996.18 184.25 998.27 184.25L999.33 184.25Q1001.25 184.25 1002.46 185.20Q1003.67 186.14 1003.77 187.68L1001.58 187.68Q1001.54 186.98 1000.92 186.53Q1000.31 186.07 999.33 186.07L998.27 186.07Q997.17 186.07 996.54 186.58Q995.92 187.08 995.92 187.94Q995.92 189.34 997.19 189.53L1000.60 190.01Q1003.96 190.49 1003.96 193.94Q1003.96 195.79 1002.75 196.81Q1001.54 197.83 999.33 197.83" fill="white" fill-opacity="0.7"/>
<path d="M1019.32 197.64L1008.04 197.64L1008.04 195.67L1012.72 195.67L1012.72 186.41L1008.52 186.41L1008.52 184.44L1014.88 184.44L1014.88 195.67L1019.32 195.67L1019.32 197.64M1013.56 182.06Q1012.77 182.06 1012.31 181.66Q1011.86 181.25 1011.86 180.55Q1011.86 179.83 1012.31 179.41Q1012.77 178.99 1013.56 178.99Q1014.35 178.99 1014.81 179.41Q1015.26 179.83 1015.26 180.55Q1015.26 181.25 1014.81 181.66Q1014.35 182.06 1013.56 182.06" fill="white" fill-opacity="0.7"/>
<path d="M1027.79 197.88Q1025.39 197.88 1023.95 196.54Q1022.51 195.19 1022.51 192.84L1022.51 189.24Q1022.51 186.89 1023.95 185.54Q1025.39 184.20 1027.79 184.20Q1030.07 184.20 1031.48 185.42Q1032.88 186.65 1032.95 188.76L1030.79 188.76Q1030.72 187.49 1029.93 186.80Q1029.14 186.12 1027.79 186.12Q1026.38 186.12 1025.52 186.92Q1024.67 187.73 1024.67 189.22L1024.67 192.84Q1024.67 194.33 1025.52 195.14Q1026.38 195.96 1027.79 195.96Q1029.14 195.96 1029.93 195.26Q1030.72 194.57 1030.79 193.32L1032.95 193.32Q1032.88 195.43 1031.48 196.66Q1030.07 197.88 1027.79 197.88" fill="white" fill-opacity="0.7"/>
<path d="M1055.25 197.88Q1053.21 197.88 1052.01 196.74Q1050.81 195.60 1050.81 193.75Q1050.81 192.53 1051.36 191.62Q1051.91 190.70 1052.90 190.19Q1053.88 189.67 1055.15 189.67L1059.23 189.67L1059.23 188.64Q1059.23 186.07 1056.42 186.07Q1055.18 186.07 1054.41 186.53Q1053.64 186.98 1053.59 187.80L1051.43 187.80Q1051.55 186.24 1052.88 185.22Q1054.22 184.20 1056.42 184.20Q1058.82 184.20 1060.11 185.35Q1061.39 186.50 1061.39 188.57L1061.39 197.64L1059.26 197.64L1059.26 195.24L1059.21 195.24Q1059.02 196.46 1057.98 197.17Q1056.95 197.88 1055.25 197.88M1055.78 196.06Q1057.36 196.06 1058.30 195.29Q1059.23 194.52 1059.23 193.20L1059.23 191.35L1055.39 191.35Q1054.34 191.35 1053.68 191.99Q1053.02 192.62 1053.02 193.68Q1053.02 194.78 1053.75 195.42Q1054.48 196.06 1055.78 196.06" fill="white" fill-opacity="0.7"/>
<path d="M1067.97 197.64L1065.81 197.64L1065.81 184.44L1067.97 184.44L1067.97 186.96L1067.99 186.96Q1068.16 185.64 1069.07 184.92Q1069.98 184.20 1071.50 184.20Q1073.49 184.20 1074.66 185.42Q1075.84 186.65 1075.84 188.76L1075.84 197.64L1073.68 197.64L1073.68 189.14Q1073.68 187.63 1072.92 186.83Q1072.17 186.02 1070.87 186.02Q1069.53 186.02 1068.75 186.86Q1067.97 187.70 1067.97 189.24" fill="white" fill-opacity="0.7"/>
<path d="M1084.43 197.88Q1082.46 197.88 1081.28 196.56Q1080.09 195.24 1080.09 192.98L1080.09 189.12Q1080.09 186.84 1081.26 185.52Q1082.44 184.20 1084.43 184.20Q1085.92 184.20 1086.89 184.94Q1087.86 185.69 1088.06 186.96L1088.08 186.96L1088.03 183.96L1088.03 180.12L1090.19 180.12L1090.19 197.64L1088.03 197.64L1088.03 195.12L1088.01 195.12Q1087.84 196.42 1086.88 197.15Q1085.92 197.88 1084.43 197.88M1085.15 196.01Q1086.50 196.01 1087.26 195.17Q1088.03 194.33 1088.03 192.84L1088.03 189.24Q1088.03 187.75 1087.26 186.91Q1086.50 186.07 1085.15 186.07Q1083.78 186.07 1083.02 186.78Q1082.25 187.49 1082.25 189.12L1082.25 192.96Q1082.25 194.57 1083.02 195.29Q1083.78 196.01 1085.15 196.01" fill="white" fill-opacity="0.7"/>
<path d="M77.73 229.83L76.67 229.83Q74.46 229.83 73.25 228.84Q72.04 227.84 72.04 226.02L74.20 226.02Q74.20 226.93 74.85 227.44Q75.50 227.96 76.67 227.96L77.73 227.96Q78.93 227.96 79.59 227.43Q80.25 226.90 80.25 225.94Q80.25 224.24 78.69 224.02L75.04 223.50Q73.70 223.30 72.95 222.38Q72.21 221.46 72.21 219.94Q72.21 218.22 73.40 217.23Q74.58 216.25 76.67 216.25L77.73 216.25Q79.65 216.25 80.86 217.20Q82.07 218.14 82.17 219.68L79.98 219.68Q79.94 218.98 79.32 218.53Q78.71 218.07 77.73 218.07L76.67 218.07Q75.57 218.07 74.94 218.58Q74.32 219.08 74.32 219.94Q74.32 221.34 75.59 221.53L79 222.01Q82.36 222.49 82.36 225.94Q82.36 227.79 81.15 228.81Q79.94 229.83 77.73 229.83" fill="white" fill-opacity="0.7"/>
<path d="M91.60 229.83Q89.22 229.83 87.82 228.44Q86.42 227.05 86.42 224.55L86.42 221.53Q86.42 219.01 87.81 217.63Q89.20 216.25 91.60 216.25Q94 216.25 95.39 217.63Q96.78 219.01 96.78 221.53L96.78 224.55Q96.78 227.05 95.38 228.44Q93.98 229.83 91.60 229.83M91.60 227.91Q93.02 227.91 93.82 227.12Q94.62 226.33 94.62 224.79L94.62 221.29Q94.62 219.75 93.82 218.96Q93.02 218.17 91.60 218.17Q90.21 218.17 89.39 218.96Q88.58 219.75 88.58 221.29L88.58 224.79Q88.58 226.33 89.39 227.12Q90.21 227.91 91.60 227.91" fill="white" fill-opacity="0.7"/>
<path d="M105.98 229.88Q103.70 229.88 102.33 228.52Q100.96 227.17 100.96 224.84L100.96 216.44L103.12 216.44L103.12 224.84Q103.12 226.28 103.89 227.13Q104.66 227.98 105.98 227.98Q107.32 227.98 108.10 227.13Q108.88 226.28 108.88 224.84L108.88 216.44L111.04 216.44L111.04 224.84Q111.04 227.17 109.65 228.52Q108.26 229.88 105.98 229.88" fill="white" fill-opacity="0.7"/>
<path d="M117.57 229.64L115.41 229.64L115.41 216.44L117.57 216.44L117.57 218.96L117.59 218.96Q117.76 217.64 118.67 216.92Q119.58 216.20 121.10 216.20Q123.09 216.20 124.26 217.42Q125.44 218.65 125.44 220.76L125.44 229.64L123.28 229.64L123.28 221.14Q123.28 219.63 122.52 218.83Q121.77 218.02 120.47 218.02Q119.13 218.02 118.35 218.86Q117.57 219.70 117.57 221.24" fill="white" fill-opacity="0.7"/>
<path d="M134.03 229.88Q132.06 229.88 130.88 228.56Q129.69 227.24 129.69 224.98L129.69 221.12Q129.69 218.84 130.86 217.52Q132.04 216.20 134.03 216.20Q135.52 216.20 136.49 216.94Q137.46 217.69 137.66 218.96L137.68 218.96L137.63 215.96L137.63 212.12L139.79 212.12L139.79 229.64L137.63 229.64L137.63 227.12L137.61 227.12Q137.44 228.42 136.48 229.15Q135.52 229.88 134.03 229.88M134.75 228.01Q136.10 228.01 136.86 227.17Q137.63 226.33 137.63 224.84L137.63 221.24Q137.63 219.75 136.86 218.91Q136.10 218.07 134.75 218.07Q133.38 218.07 132.62 218.78Q131.85 219.49 131.85 221.12L131.85 224.96Q131.85 226.57 132.62 227.29Q133.38 228.01 134.75 228.01" fill="white" fill-opacity="0.7"/>
<path d="M163.60 229.88Q161.27 229.88 159.84 228.48Q158.42 227.07 158.42 224.60L158.42 221.48Q158.42 219.01 159.84 217.60Q161.27 216.20 163.60 216.20Q165.16 216.20 166.32 216.82Q167.49 217.45 168.14 218.58Q168.78 219.70 168.78 221.24L168.78 223.59L160.53 223.59L160.53 224.84Q160.53 226.30 161.37 227.16Q162.21 228.01 163.60 228.01Q164.80 228.01 165.58 227.54Q166.36 227.07 166.53 226.28L168.69 226.28Q168.47 227.94 167.08 228.91Q165.69 229.88 163.60 229.88M160.53 221.24L160.53 221.91L166.67 221.91L166.67 221.24Q166.67 219.68 165.87 218.83Q165.06 217.98 163.60 217.98Q162.14 217.98 161.33 218.83Q160.53 219.68 160.53 221.24" fill="white" fill-opacity="0.7"/>
<path d="M178.12 229.64L175.96 229.64L175.96 220.21L172.12 220.21L172.12 218.24L175.96 218.24L175.96 215.48Q175.96 213.92 176.94 213.02Q177.93 212.12 179.66 212.12L183.52 212.12L183.52 214.09L179.66 214.09Q178.12 214.09 178.12 215.48L178.12 218.24L183.52 218.24L183.52 220.21L178.12 220.21" fill="white" fill-opacity="0.7"/>
<path d="M192.52 229.64L190.36 229.64L190.36 220.21L186.52 220.21L186.52 218.24L190.36 218.24L190.36 215.48Q190.36 213.92 191.34 213.02Q192.33 212.12 194.06 212.12L197.92 212.12L197.92 214.09L194.06 214.09Q192.52 214.09 192.52 215.48L192.52 218.24L197.92 218.24L197.92 220.21L192.52 220.21" fill="white" fill-opacity="0.7"/>
<path d="M206.80 229.88Q204.47 229.88 203.04 228.48Q201.62 227.07 201.62 224.60L201.62 221.48Q201.62 219.01 203.04 217.60Q204.47 216.20 206.80 216.20Q208.36 216.20 209.52 216.82Q210.69 217.45 211.34 218.58Q211.98 219.70 211.98 221.24L211.98 223.59L203.73 223.59L203.73 224.84Q203.73 226.30 204.57 227.16Q205.41 228.01 206.80 228.01QNaN 228.01 208.78 227.54Q209.56 227.07 209.73 226.28L211.89 226.28Q211.67 227.94 210.28 228.91Q208.89 229.88 206.80 229.88M203.73 221.24L203.73 221.91L209.87 221.91L209.87 221.24Q209.87 219.68 209.07 218.83Q208.26 217.98 206.80 217.98Q205.34 217.98 204.53 218.83Q203.73 219.68 203.73 221.24" fill="white" fill-opacity="0.7"/>
<path d="M221.39 229.88Q218.99 229.88 217.55 228.54Q216.11 227.19 216.11 224.84L216.11 221.24Q216.11 218.89 217.55 217.54Q218.99 216.20 221.39 216.20Q223.67 216.20 225.08 217.42Q226.48 218.65 226.55 220.76L224.39 220.76Q224.32 219.49 223.53 218.80Q222.74 218.12 221.39 218.12Q219.98 218.12 219.12 218.92Q218.27 219.73 218.27 221.22L218.27 224.84Q218.27 226.33 219.12 227.14Q219.98 227.96 221.39 227.96Q222.74 227.96 223.53 227.26Q224.32 226.57 224.39 225.32L226.55 225.32Q226.48 227.43 225.08 228.66Q223.67 229.88 221.39 229.88" fill="white" fill-opacity="0.7"/>
<path d="M240.76 229.64L236.92 229.64Q235.29 229.64 234.30 228.69Q233.32 227.74 233.32 226.16L233.32 218.41L229.53 218.41L229.53 216.44L233.32 216.44L233.32 212.72L235.48 212.72L235.48 216.44L240.88 216.44L240.88 218.41L235.48 218.41L235.48 226.16Q235.48 226.83 235.88 227.25Q236.27 227.67 236.92 227.67L240.76 227.67" fill="white" fill-opacity="0.7"/>
<path d="M250.53 229.83L249.47 229.83Q247.26 229.83 246.05 228.84Q244.84 227.84 244.84 226.02LNaN 226.02QNaN 226.93 247.65 227.44Q248.30 227.96 249.47 227.96L250.53 227.96Q251.73 227.96 252.39 227.43Q253.05 226.90 253.05 225.94Q253.05 224.24 251.49 224.02L247.84 223.50Q246.50 223.30 245.75 222.38Q245.01 221.46 245.01 219.94Q245.01 218.22 246.20 217.23Q247.38 216.25 249.47 216.25L250.53 216.25Q252.45 216.25 253.66 217.20Q254.87 218.14 254.97 219.68L252.78 219.68Q252.74 218.98 252.12 218.53Q251.51 218.07 250.53 218.07L249.47 218.07Q248.37 218.07 247.74 218.58Q247.12 219.08 247.12 219.94Q247.12 221.34 248.39 221.53L251.80 222.01Q255.16 222.49 255.16 225.94Q255.16 227.79 253.95 228.81Q252.74 229.83 250.53 229.83" fill="white" fill-opacity="0.7"/>
<path d="M278.92 229.64L276.76 229.64L276.76 220.21L272.92 220.21L272.92 218.24L276.76 218.24L276.76 215.48Q276.76 213.92 277.74 213.02Q278.73 212.12 280.46 212.12L284.32 212.12L284.32 214.09L280.46 214.09Q278.92 214.09 278.92 215.48L278.92 218.24L284.32 218.24L284.32 220.21L278.92 220.21" fill="white" fill-opacity="0.7"/>
<path d="M290.85 229.64L288.69 229.64L288.69 216.44L290.85 216.44L290.85 218.96L290.90 218.96Q291.06 217.69 291.98 216.94Q292.89 216.20 294.42 216.20Q296.49 216.20 297.60 217.44Q298.72 218.67 298.72 220.95L298.72 222.08L296.56 222.08L296.56 220.95Q296.56 218.07 293.75 218.07Q292.34 218.07 291.59 218.89Q290.85 219.70 290.85 221.24" fill="white" fill-opacity="0.7"/>
<path d="M307.60 229.83Q305.22 229.83 303.82 228.44Q302.42 227.05 302.42 224.55L302.42 221.53Q302.42 219.01 303.81 217.63Q305.20 216.25 307.60 216.25Q310 216.25 311.39 217.63Q312.78 219.01 312.78 221.53L312.78 224.55Q312.78 227.05 311.38 228.44Q309.98 229.83 307.60 229.83M307.60 227.91Q309.02 227.91 309.82 227.12Q310.62 226.33 310.62 224.79L310.62 221.29Q310.62 219.75 309.82 218.96Q309.02 218.17 307.60 218.17Q306.21 218.17 305.39 218.96Q304.58 219.75 304.58 221.29L304.58 224.79Q304.58 226.33 305.39 227.12Q306.21 227.91 307.60 227.91" fill="white" fill-opacity="0.7"/>
<path d="M318.26 229.64L316.24 229.64L316.24 216.44L318.11 216.44L318.11 218.19L318.16 218.19Q318.28 217.30 318.87 216.75Q319.46 216.20 320.37 216.20Q321.23 216.20 321.83 216.70Q322.43 217.21 322.70 218.07L322.72 218.07Q322.89 217.21 323.48 216.70Q324.06 216.20 324.98 216.20Q326.25 216.20 327 217.15Q327.76 218.10 327.76 219.61L327.76 229.64L325.74 229.64L325.74 219.58Q325.74 218.79 325.36 218.32Q324.98 217.86 324.30 217.86Q323.66 217.86 323.27 218.31Q322.89 218.77 322.89 219.56L322.89 229.64L321.11 229.64L321.11 219.58Q321.11 218.79 320.73 218.32Q320.34 217.86 319.70 217.86Q319.02 217.86 318.64 218.31Q318.26 218.77 318.26 219.56" fill="white" fill-opacity="0.7"/>
<path d="M347.97 229.64L345.81 229.64L345.81 212.12L351.45 212.12Q353.90 212.12 355.35 213.52Q356.80 214.93 356.80 217.28Q356.80 219.63 355.35 221.04Q353.90 222.44 351.45 222.44L347.97 222.44L347.97 229.64M347.97 214.06L347.97 220.50L351.45 220.50Q352.86 220.50 353.72 219.62Q354.57 218.74 354.57 217.28Q354.57 215.79 353.72 214.93Q352.86 214.06 351.45 214.06" fill="white" fill-opacity="0.7"/>
<path d="M371.32 229.64L360.04 229.64L360.04 227.67L364.72 227.67L364.72 218.41L360.52 218.41L360.52 216.44L366.88 216.44L366.88 227.67L371.32 227.67L371.32 229.64M365.56 214.06Q364.77 214.06 364.31 213.66Q363.86 213.25 363.86 212.55Q363.86 211.83 364.31 211.41Q364.77 210.99 365.56 210.99Q366.35 210.99 366.81 211.41Q367.26 211.83 367.26 212.55Q367.26 213.25 366.81 213.66Q366.35 214.06 365.56 214.06" fill="white" fill-opacity="0.7"/>
<path d="M376.14 229.64L373.60 229.64L378.28 222.85L373.89 216.44L376.43 216.44L379.05 220.52Q379.22 220.78 379.37 221.10Q379.53 221.41 379.62 221.60Q379.70 221.41 379.85 221.10Q380.01 220.78 380.18 220.52L382.79 216.44L385.34 216.44L380.94 222.87L385.60 229.64L383.06 229.64L380.22 225.32Q380.06 225.06 379.90 224.71Q379.74 224.36 379.62 224.14Q379.53 224.36 379.35 224.71Q379.17 225.06 378.98 225.32" fill="white" fill-opacity="0.7"/>
<path d="M392.85 229.88Q390.81 229.88 389.61 228.74Q388.41 227.60 388.41 225.75Q388.41 224.53 388.96 223.62Q389.51 222.70 390.50 222.19Q391.48 221.67 392.75 221.67L396.83 221.67L396.83 220.64Q396.83 218.07 394.02 218.07Q392.78 218.07 392.01 218.53Q391.24 218.98 391.19 219.80L389.03 219.80Q389.15 218.24 390.48 217.22Q391.82 216.20 394.02 216.20Q396.42 216.20 397.71 217.35Q398.99 218.50 398.99 220.57L398.99 229.64L396.86 229.64L396.86 227.24L396.81 227.24Q396.62 228.46 395.58 229.17Q394.55 229.88 392.85 229.88M393.38 228.06Q394.96 228.06 395.90 227.29Q396.83 226.52 396.83 225.20L396.83 223.35L392.99 223.35Q391.94 223.35 391.28 223.99Q390.62 224.62 390.62 225.68Q390.62 226.78 391.35 227.42Q392.08 228.06 393.38 228.06" fill="white" fill-opacity="0.7"/>
<path d="M409.17 229.88Q407.68 229.88 406.72 229.15Q405.76 228.42 405.59 227.12L405.57 227.12L405.57 229.64L403.41 229.64L403.41 212.12L405.57 212.12L405.57 215.96L405.52 218.96L405.54 218.96Q405.74 217.69 406.71 216.94Q407.68 216.20 409.17 216.20Q411.16 216.20 412.34 217.52Q413.51 218.84 413.51 221.12L413.51 224.98Q413.51 227.24 412.34 228.56Q411.16 229.88 409.17 229.88M408.45 228.01Q409.82 228.01 410.58 227.29Q411.35 226.57 411.35 224.96L411.35 221.12Q411.35 219.49 410.58 218.78Q409.82 218.07 408.45 218.07Q407.13 218.07 406.35 218.91Q405.57 219.75 405.57 221.24L405.57 224.84Q405.57 226.33 406.35 227.17Q407.13 228.01 408.45 228.01" fill="white" fill-opacity="0.7"/>
<path d="M421.65 229.88Q419.61 229.88 418.41 228.74Q417.21 227.60 417.21 225.75Q417.21 224.53 417.76 223.62Q418.31 222.70 419.30 222.19Q420.28 221.67 421.55 221.67L425.63 221.67L425.63 220.64Q425.63 218.07 422.82 218.07Q421.58 218.07 420.81 218.53Q420.04 218.98 419.99 219.80L417.83 219.80Q417.95 218.24 419.28 217.22Q420.62 216.20 422.82 216.20Q425.22 216.20 426.51 217.35Q427.79 218.50 427.79 220.57L427.79 229.64L425.66 229.64L425.66 227.24L425.61 227.24Q425.42 228.46 424.38 229.17Q423.35 229.88 421.65 229.88M422.18 228.06Q423.76 228.06 424.70 227.29Q425.63 226.52 425.63 225.20L425.63 223.35L421.79 223.35Q420.74 223.35 420.08 223.99Q419.42 224.62 419.42 225.68Q419.42 226.78 420.15 227.42Q420.88 228.06 422.18 228.06" fill="white" fill-opacity="0.7"/>
<path d="M436.53 233.96L434.27 233.96L436.22 228.82L431.30 216.44L433.62 216.44L436.74 224.60Q436.94 225.08 437.10 225.61Q437.27 226.14 437.34 226.52Q437.42 226.14 437.58 225.61Q437.75 225.08 437.92 224.60L440.82 216.44L443.10 216.44" fill="white" fill-opacity="0.7"/>
<path d="M79.95 136.06L70.45 136.06L70.45 65.98L93.20 65.98Q99.92 65.98 104.82 68.57Q109.71 71.16 112.40 75.82Q115.09 80.48 115.09 86.91Q115.09 93.24 112.40 97.90Q109.71 102.56 104.77 105.15Q99.82 107.74 93.20 107.74L79.95 107.74L79.95 136.06M79.95 74.43L79.95 99.29L93.20 99.29Q98.77 99.29 102.03 95.88Q105.30 92.48 105.30 86.91Q105.30 81.24 102.03 77.84Q98.77 74.43 93.20 74.43L79.95 74.43M167.50 136.06L129.30 136.06L129.30 127.42L143.60 127.42L143.60 74.62L129.30 74.62L129.30 65.98L167.50 65.98L167.50 74.62L153.20 74.62L153.20 127.42L167.50 127.42L167.50 136.06M191.22 136.06L180.75 136.06L200.72 100.44L181.81 65.98L192.66 65.98L203.02 85.95Q203.89 87.68 204.80 89.50Q205.71 91.32 206.19 92.28Q206.67 91.32 207.54 89.50Q208.40 87.68 209.26 85.95L219.73 65.98L230.19 65.98L211.28 99.96L231.25 136.06L220.50 136.06L208.98 114.56Q208.11 112.83 207.25 110.96Q206.38 109.08 205.90 107.93Q205.42 109.08 204.56 110.96Q203.70 112.83 202.74 114.46L191.22 136.06M248.91 136.06L239.22 136.06L257.36 65.98L269.94 65.98L287.98 136.06L278.29 136.06L273.87 117.82L253.33 117.82L248.91 136.06M260.34 88.92L255.25 109.95L271.95 109.95L266.96 89.02Q265.52 83.26 264.66 79.23Q263.79 75.20 263.60 73.76Q263.41 75.20 262.54 79.23Q261.68 83.26 260.34 88.92M322.54 136.06L300.94 136.06L300.94 65.98L321.20 65.98Q330.90 65.98 336.51 70.83Q342.13 75.68 342.13 84.12Q342.13 89.60 338.72 93.87Q335.31 98.14 329.94 99.10L329.94 99.39Q333.97 99.87 337.09 102.27Q340.21 104.67 341.98 108.36Q343.76 112.06 343.76 116.48Q343.76 125.50 338.05 130.78Q332.34 136.06 322.54 136.06M310.26 74.33L310.26 95.55L321.10 95.55Q326.48 95.55 329.55 92.72Q332.62 89.88 332.62 84.99Q332.62 80 329.55 77.16Q326.48 74.33 321.20 74.33L310.26 74.33M310.26 103.61L310.26 127.71L321.68 127.71Q327.54 127.71 330.90 124.59Q334.26 121.47 334.26 116.09Q334.26 110.52 330.90 107.07Q327.54 103.61 321.68 103.61L310.26 103.61M364.11 136.06L354.42 136.06L372.56 65.98L385.14 65.98L403.18 136.06L393.49 136.06L389.07 117.82L368.53 117.82L364.11 136.06M375.54 88.92L370.45 109.95L387.15 109.95L382.16 89.02Q380.72 83.26 379.86 79.23Q378.99 75.20 378.80 73.76Q378.61 75.20 377.74 79.23Q376.88 83.26 375.54 88.92M441.20 136.06L431.70 136.06L431.70 110.04L410.67 65.98L420.75 65.98L433.71 93.63Q434.86 96.12 435.58 98.14Q436.30 100.16 436.50 101.02Q436.78 100.16 437.50 98.14Q438.22 96.12 439.47 93.63L452.34 65.98L462.13 65.98L441.20 110.04" fill="url(#paint2_linear_0_1)"/>
<g id="Group 1">
<rect id="Rectangle 1" x="26" y="168" width="12" height="184" rx="5" fill="url(#paint3_linear_0_1)" fill-opacity="0.9"/>
</g>
<g id="Group 1_2">
<rect id="Rectangle 2" x="26" y="38" width="12" height="119" rx="5" fill="url(#paint4_linear_0_1)" fill-opacity="0.9"/>
</g>
<ellipse id="Ellipse 1" cx="148.5" cy="573" rx="215.5" ry="214" fill="url(#paint5_linear_0_1)" fill-opacity="0.4"/>
<rect id="Rectangle 3" x="1229" y="48" width="300" height="300" rx="25" fill="#FFFBFB" fill-opacity="0.9"/>
<g id="placeholder-logo"><g transform="translate(1229,48) translate(0.0,121.0) scale(0.4688)"><g transform="translate(-156.15726,-367.21451)" fill="#333">
<path d="m679.67,407.38c-3.4778-2.461-6.0048-4.9559-6.0048-8.0337h-19.338c0,5.5388-2.527,8.0337-5.6449,8.0337h-5.1644v56.236h100.42v-56.236h-64.629zm-6.0056,16.067-18.096,0,0-8.0337,20.084,0,0,6.4644zm33.991,31.276c-11.457,0-20.779-9.2018-20.779-20.513s9.3215-20.04,20.779-20.04c11.457,0,20.778,8.7283,20.778,20.04,0,11.311-9.3207,20.513-20.778,20.513zm11.17-20.513c0,6.0803-5.011,11.028-11.169,11.028-6.1591,0-11.17-4.9476-11.17-11.028,0-6.081,5.0109-11.027,11.17-11.027,6.1582,0,11.169,4.9468,11.169,11.027zm77.334-34.48-25.001,63.735-19.184-7.6934,0-10.862,13.323,5.4522,17.592-44.844-65.92-25.205-6.1099,19.034-11,0,11.248-32.135,85.053,32.519z"/>
<g transform="matrix(4.129044,0,0,4.129044,-488.6229,-1536.6294)">
<path d="m164.38,467.99c4.011-0.0921,7.7758,3.1703,8.1995,7.17,0.50671,3.5153-1.5613,7.166-4.8022,8.5926-1.9632,0.97468-4.1802,0.67513-6.2919,0.72493h-2.063v6.6094h-3.2677c0.007-5.0998-0.0132-10.2,0.01-15.3,0.10696-3.7986,3.2179-7.2015,6.9739-7.7072,0.41065-0.061,0.82716-0.0908,1.2414-0.0901zm0,13.219c2.3572,0.0591,4.5679-1.78,4.9197-4.1152,0.46978-2.3507-1.0297-4.8765-3.3219-5.5815-2.214-0.78561-4.8777,0.24867-5.9588,2.3393-0.83901,1.4284-0.54099,3.1171-0.59666,4.691v2.6665c1.6526-0.00001,3.3051,0.00001,4.9577-0.00001z"/>
<path d="m174.16,467.91,3.2308,0,0,16.488-3.2308,0,0-16.488z"/>
<path d="m187.1,478.32,0.11776,0,4.5925,6.1234,4.0037,0-6.2411-8.4785,5.5346-8.0075-4.0038,0-3.886,5.6523-0.11776,0-3.886-5.6523-4.0037,0,5.5346,8.0075-6.2411,8.4785,4.0038,0z"/>
<path d="m203.13,467.91c3.2724-0.0646,6.4111,2.0792,7.6221,5.1058,0.63231,1.4057,0.62342,2.963,0.60314,4.472v6.91c-2.9161-0.01-5.8331,0.0201-8.7487-0.0157-3.3523-0.16361-6.4178-2.608-7.3775-5.8156-0.87984-2.7888-0.14884-6.0271,1.922-8.1097,1.5471-1.6003,3.7454-2.5681,5.9789-2.5468zm4.9576,13.22c-0.014-1.8333,0.0294-3.6684-0.0241-5.5004-0.19325-2.4562-2.4685-4.514-4.9336-4.4508-2.3436-0.0566-4.553,1.7616-4.9197,4.0819-0.42956,2.2266,0.84881,4.6528,2.9737,5.4838,1.3088,0.57081,2.7544,0.33544,4.1378,0.38549,0.92196,0.00001,1.8439,0.00001,2.7659,0.00001z"/>
<path d="m221.19,467.99c3.8699-0.0954,7.4862,2.9494,8.1024,6.7609,0.69922,3.6121-1.3415,7.5146-4.7051,9.0017-3.2872,1.5514-7.5139,0.55177-9.7744-2.2912-1.401-1.6503-2.0047-3.8445-1.8853-5.984v-14.097h3.2677v6.6094c1.6649,0.00021,3.3302-0.00043,4.9948,0.00032zm0,13.219c2.4818,0.0664,4.7507-2.0174,4.9325-4.4865,0.31135-2.4542-1.5078-4.9223-3.9368-5.3683-1.3432-0.18387-2.7076-0.0602-4.0606-0.0964h-1.9297c0.021,1.8627-0.0445,3.7289,0.0376,5.5892,0.25949,2.4609,2.485,4.4103,4.957,4.362z"/>
<path d="m238.9,467.91c3.2725-0.0646,6.411,2.0793,7.6222,5.1058,0.63229,1.4057,0.62343,2.963,0.60314,4.472v6.91c-2.9161-0.01-5.8331,0.0201-8.7487-0.0157-3.3523-0.16361-6.4178-2.608-7.3775-5.8156-0.87985-2.7888-0.14883-6.0271,1.922-8.1097,1.547-1.6003,3.7454-2.5681,5.9788-2.5468zm4.9576,13.22c-0.014-1.8333,0.0294-3.6684-0.0241-5.5004-0.19325-2.4562-2.4685-4.514-4.9336-4.4508-2.3436-0.0566-4.553,1.7616-4.9197,4.0819-0.42957,2.2266,0.84881,4.6528,2.9737,5.4838,1.3088,0.57081,2.7544,0.33544,4.1378,0.38549,0.92196,0.00001,1.8439,0.00001,2.7659,0.00001z"/>
<path d="m265.11,467.95c-0.007,5.0876,0.0132,10.176-0.0101,15.263-0.11859,4.004-3.5594,7.6027-7.5766,7.8119-0.7631,0.0404-1.5278,0.0158-2.2917,0.0226v-3.2677c1.3944-0.007,2.8862,0.13456,4.1212-0.65516,1.5426-0.86529,2.523-2.6105,2.4882-4.3753-2.8966,2.3356-7.3871,2.2143-10.204-0.19651-2.0523-1.6568-3.1738-4.322-3.0154-6.9447v-7.6578h3.2677c0.015,2.9107-0.0307,5.8234,0.0241,8.7328,0.17752,2.3961,2.314,4.4238,4.7151,4.4811,2.4332,0.18697,4.7752-1.7026,5.1382-4.1097,0.14646-1.44,0.0425-2.8946,0.0738-4.3411v-4.7632c1.0896-0.00007,2.1792-0.00014,3.2689-0.00021z"/>
</g>
</g></g></g>
</g>
<defs>
<linearGradient id="paint0_linear_0_1" x1="0" y1="198" x2="1584" y2="198" gradientUnits="userSpaceOnUse">
<stop stop-color="#3D052C"/>
<stop offset="1"/>
</linearGradient>
<linearGradient id="paint1_linear_0_1" x1="323" y1="-224" x2="323" y2="352" gradientUnits="userSpaceOnUse">
<stop stop-color="#28F6F2" stop-opacity="0.4"/>
<stop offset="1" stop-color="#17908E" stop-opacity="0.7"/>
</linearGradient>
<linearGradient id="paint2_linear_0_1" x1="148.5" y1="38" x2="148.5" y2="140" gradientUnits="userSpaceOnUse">
<stop stop-color="white"/>
<stop offset="1" stop-color="#999999"/>
</linearGradient>
<linearGradient id="paint3_linear_0_1" x1="38" y1="260" x2="26" y2="260" gradientUnits="userSpaceOnUse">
<stop stop-color="#D9D9D9"/>
<stop offset="1" stop-color="#737373"/>
</linearGradient>
<linearGradient id="paint4_linear_0_1" x1="38" y1="97.5" x2="26" y2="97.5" gradientUnits="userSpaceOnUse">
<stop stop-color="#D9D9D9"/>
<stop offset="1" stop-color="#737373"/>
</linearGradient>
<linearGradient id="paint5_linear_0_1" x1="27.5" y1="434.5" x2="148.5" y2="787" gradientUnits="userSpaceOnUse">
<stop stop-color="#2E21BC"/>
<stop offset="1" stop-color="#150F56"/>
</linearGradient>
<clipPath id="clip0_0_1">
<rect width="1584" height="396" fill="white"/>
</clipPath>
</defs>
</svg>
